<?xml version="1.0" encoding="iso-8859-1"?>
<!-- Uploaded to: SVG Repo, www.svgrepo.com, Generator: SVG Repo Mixer Tools -->
<svg height="800px" width="800px" version="1.1" id="Layer_1" xmlns="http://www.w3.org/2000/svg" xmlns:xlink="http://www.w3.org/1999/xlink" 
	 viewBox="0 0 512 512" xml:space="preserve">
<g>
	<path style="fill:#CC5051;" d="M445.578,270.186c9.091-4.356,23.612,7.036,32.433,25.444c8.821,18.409,8.603,36.864-0.488,41.22
		l-35.711,17.112l-31.945-66.665L445.578,270.186z"/>
	<path style="fill:#CC5051;" d="M243.674,17.866c6.244-7.914,24.297-4.081,40.324,8.562c16.026,12.643,23.957,29.308,17.713,37.223
		L277.185,94.74l-58.037-45.785L243.674,17.866z"/>
	<path style="fill:#CC5051;" d="M464.951,32.58c8.269-5.766,24.438,3.134,36.114,19.879c11.676,16.745,14.437,34.993,6.167,40.759
		l-32.482,22.649L432.47,55.23L464.951,32.58z"/>
</g>
<g>
	<path style="fill:#E65A5B;" d="M439.094,270.221L439.094,270.221c16.281,33.977,1.936,74.719-32.041,91.001l-33.708,16.152
		l-33.275-20.566l-1.856-42.303l26.814-27.915l51.062-24.468C424.68,258.006,434.979,261.633,439.094,270.221z"/>
	<path style="fill:#E65A5B;" d="M237.868,20.754L237.868,20.754c29.58,23.336,34.642,66.232,11.307,95.812l-23.151,29.346
		l-38.932-3.811l-20.296-37.164l11.782-36.871l35.069-44.454C219.548,16.134,230.391,14.855,237.868,20.754z"/>
	<path style="fill:#E65A5B;" d="M458.558,33.66L458.558,33.66c21.549,30.905,13.966,73.428-16.941,94.978l-30.66,21.379
		L374.8,135.089l-8.657-41.451l21.96-31.876l46.445-32.386C442.361,23.931,453.11,25.849,458.558,33.66z"/>
</g>
<path style="fill:#FF6465;" d="M473.433,341.882L473.433,341.882c-16.281-33.977-57.023-48.322-91.001-32.041l-33.708,16.152
	l-4.818,38.82l31.809,27.951l38.557-3.41l51.062-24.468C473.923,360.769,477.548,350.47,473.433,341.882z"/>
<path style="fill:#8CD76E;" d="M72.699,489.85c-3.53-7.368-0.419-16.201,6.947-19.732l235.126-112.669
	c7.368-3.53,16.201-0.419,19.732,6.947c3.53,7.368,0.419,16.201-6.947,19.732L92.431,496.797
	C85.065,500.327,76.23,497.217,72.699,489.85z"/>
<g>
	<path style="fill:#B9E578;" d="M226.061,325.596c-10.785,6.919-19.471,21.845-21.923,40.007
		c-2.452,18.163,1.965,34.857,10.529,44.389c10.785-6.919,19.471-21.845,21.923-40.007
		C239.042,351.822,234.624,335.128,226.061,325.596z"/>
	<path style="fill:#B9E578;" d="M261.231,490.274c-12.15,4.071-29.226,1.49-44.917-7.978c-15.693-9.468-25.937-23.37-28.001-36.018
		c12.15-4.071,29.226-1.49,44.917,7.978C248.923,463.725,259.168,477.627,261.231,490.274z"/>
</g>
<path style="fill:#FF6465;" d="M300.255,69.97L300.255,69.97c-29.58-23.336-72.477-18.273-95.812,11.307l-23.151,29.346
	l12.768,36.975l40.867,11.087l33.115-20.041l35.069-44.454C309.012,86.713,307.733,75.869,300.255,69.97z"/>
<path style="fill:#8CD76E;" d="M5.631,379.288c-6.413-5.059-7.511-14.361-2.452-20.775l161.484-204.698
	c5.059-6.413,14.361-7.511,20.775-2.452c6.413,5.059,7.511,14.361,2.452,20.775L26.405,376.836
	C21.346,383.25,12.044,384.348,5.631,379.288z"/>
<path style="fill:#B9E578;" d="M70.988,164.283c-6.636,10.962-7.861,28.188-2.065,45.574s17.115,30.43,29.001,35.217
	c6.636-10.962,7.861-28.187,2.065-45.574S82.874,169.07,70.988,164.283z"/>
<path style="fill:#FF6465;" d="M504.008,98.842L504.008,98.842c-21.549-30.905-64.072-38.49-94.978-16.941l-30.66,21.379
	l1.507,39.089l35.902,22.453l37.502-9.586l46.445-32.386C507.538,117.404,509.455,106.655,504.008,98.842z"/>
<path style="fill:#8CD76E;" d="M132.395,309.522c-4.673-6.701-3.028-15.922,3.673-20.594l213.869-149.126
	c6.701-4.673,15.922-3.028,20.594,3.673c4.673,6.701,3.028,15.922-3.673,20.594l-213.87,149.126
	C146.288,317.867,137.068,316.223,132.395,309.522z"/>
<path style="fill:#B9E578;" d="M318.526,279.525c-11.334,5.978-28.602,6.185-45.617-0.628c-17.014-6.812-29.368-18.88-33.444-31.028
	c11.334-5.978,28.602-6.185,45.617,0.628C302.096,255.309,314.45,267.376,318.526,279.525z"/>
<path style="opacity:0.1;enable-background:new    ;" d="M334.506,364.396c-3.53-7.368-12.364-10.478-19.732-6.947l-23.238,11.136
	c1.355,4.69,3.09,9.333,5.269,13.878c2.161,4.509,4.693,8.779,7.531,12.794l23.224-11.129
	C334.925,380.599,338.036,371.764,334.506,364.396z"/>
<path style="fill:#8CD76E;" d="M374.905,379.636l17.857-43.155l-44.823-13.12l17.857-43.155l-15.322,7.342
	c-31.079,14.893-44.202,52.161-29.309,83.241l0,0c14.893,31.079,52.161,44.202,83.241,29.309l15.322-7.342L374.905,379.636z"/>
<path style="opacity:0.1;enable-background:new    ;" d="M185.439,151.363c-6.413-5.06-15.715-3.963-20.775,2.452l-15.967,20.24
	c3.307,3.631,6.916,7.029,10.848,10.132c3.903,3.079,8.049,5.811,12.384,8.184l15.962-20.232
	C192.95,165.724,191.852,156.422,185.439,151.363z"/>
<path style="fill:#8CD76E;" d="M228.421,147.254l-2.972-46.61l-46.021,7.96l-2.972-46.61l-10.523,13.339
	c-21.345,27.057-16.715,66.296,10.342,87.641l0,0c27.057,21.345,66.296,16.715,87.641-10.342l10.523-13.339L228.421,147.254z"/>
<path style="opacity:0.1;enable-background:new    ;" d="M349.939,139.803l-21.146,14.746c2.113,4.433,4.583,8.731,7.448,12.84
	c2.859,4.1,6.038,7.91,9.481,11.422l21.14-14.741c6.701-4.673,8.345-13.892,3.673-20.594
	C365.859,136.774,356.639,135.13,349.939,139.803z"/>
<path style="fill:#8CD76E;" d="M412.861,151.997l10.661-45.471l-46.352-5.716l10.661-45.471l-13.937,9.718
	c-28.27,19.712-35.207,58.609-15.496,86.878l0,0c19.712,28.27,58.609,35.207,86.878,15.496l13.937-9.718L412.861,151.997z"/>
</svg>